<svg width="48" height="44" viewBox="0 0 48 44" fill="none" xmlns="http://www.w3.org/2000/svg">
<path d="M46.5235 9.8703L40.3991 7.14717C39.9252 6.93642 39.37 7.14979 39.1592 7.62389C38.9483 8.0979 39.1618 8.653 39.6358 8.8638L45.7602 11.587C46.0861 11.7318 46.1213 12.0238 46.1213 12.1426C46.1213 12.2614 46.0861 12.5534 45.7602 12.6983L25.5366 21.6903C25.3795 21.7603 25.1993 21.7602 25.0424 21.6903L4.81884 12.6982C4.49297 12.5534 4.45781 12.2614 4.45781 12.1425C4.45781 12.0238 4.49297 11.7317 4.81894 11.5869L25.0424 2.59486C25.1993 2.52482 25.3795 2.52482 25.5366 2.59486L31.9639 5.45254C32.4379 5.66329 32.9931 5.45001 33.2039 4.97582C33.4147 4.50182 33.2013 3.94673 32.7272 3.73589L26.3 0.878199C25.6579 0.592729 24.9215 0.592639 24.2793 0.878199L4.05562 9.8703C3.14494 10.2752 2.57906 11.146 2.57906 12.1426V27.6895C1.10578 28.0145 0 29.3299 0 30.8994V35.9954C0 37.2902 1.05347 38.3437 2.34834 38.3437H4.68853C5.98341 38.3437 7.03687 37.2902 7.03687 35.9954V30.8994C7.03687 29.3298 5.931 28.0144 4.45772 27.6895V14.5937L8.90109 16.5694V26.143C8.90109 27.476 9.70322 28.6525 10.9445 29.1402L24.2451 34.366C24.6246 34.5148 25.0232 34.5893 25.422 34.5893C25.8209 34.5893 26.2199 34.5148 26.5997 34.3658L30.5593 32.8104L32.2147 38.9884C32.4046 39.6972 32.941 40.2336 33.6497 40.4234C34.3582 40.613 35.0912 40.417 35.6099 39.8981C35.6464 39.8617 35.688 39.8539 35.7164 39.8539C35.7449 39.8539 35.7864 39.8616 35.823 39.8982L38.6706 42.7457C39.0503 43.1254 39.5707 43.3401 40.1063 43.3401C40.1259 43.3401 40.1456 43.3398 40.1653 43.3393C40.7216 43.3229 41.2528 43.0749 41.6226 42.6588L44.5755 39.3358C45.2881 38.5338 45.252 37.3113 44.4935 36.5528L41.8309 33.8903C41.7944 33.8539 41.7867 33.8122 41.7867 33.7838C41.7867 33.7553 41.7944 33.7136 41.8309 33.6772C42.3496 33.1585 42.546 32.4257 42.3561 31.7171C42.1662 31.0083 41.6298 30.4719 40.9211 30.282L38.5862 29.6564L39.7109 29.2144C40.9517 28.727 41.7533 27.5505 41.7533 26.2172V16.5359L46.5234 14.4149C47.4341 14.01 47.9999 13.1393 47.9999 12.1426C48 11.146 47.4342 10.2752 46.5235 9.8703ZM5.15822 30.8994V35.9954C5.15822 36.2543 4.94747 36.465 4.68853 36.465H2.34834C2.08941 36.465 1.87866 36.2543 1.87866 35.9954V30.8994C1.87866 30.1224 2.51072 29.4904 3.28763 29.4904H3.74916C4.52616 29.4904 5.15822 30.1225 5.15822 30.8994ZM40.5415 32.2031C40.564 32.2871 40.5177 32.3333 40.5025 32.3487C40.1192 32.7319 39.9082 33.2415 39.9082 33.7836C39.9082 34.3257 40.1193 34.8353 40.5025 35.2185L43.165 37.881C43.2214 37.9374 43.224 38.0281 43.1711 38.0877L40.2182 41.4106C40.1825 41.4509 40.1396 41.4602 40.11 41.4612C40.0801 41.461 40.037 41.4551 39.999 41.417L37.1514 38.5695C36.7681 38.1862 36.2586 37.9751 35.7164 37.9751C35.1743 37.9751 34.6647 38.1862 34.2814 38.5695C34.2662 38.5847 34.22 38.6313 34.1359 38.6085C34.0519 38.586 34.0349 38.5228 34.0294 38.502L31.7523 30.004C31.7468 29.9832 31.7298 29.9199 31.7913 29.8584C31.8529 29.7966 31.9161 29.8138 31.9368 29.8193L40.4348 32.0964C40.4557 32.1021 40.519 32.1191 40.5415 32.2031ZM39.8748 26.2171C39.8748 26.7726 39.5408 27.2627 39.0241 27.4657L35.5319 28.8378L32.4232 28.0049C31.7143 27.8147 30.9817 28.0113 30.4629 28.5301C29.9442 29.0489 29.7478 29.7817 29.9377 30.4904L30.07 30.9842L25.9133 32.617C25.5966 32.7411 25.2478 32.7412 24.9315 32.6172L11.6315 27.3915C11.1141 27.1884 10.7798 26.6983 10.7798 26.143V17.4047L24.2793 23.4071C24.6004 23.5499 24.945 23.6212 25.2896 23.6212C25.6343 23.6212 25.9789 23.5499 26.3 23.4071L39.8748 17.3713V26.2171Z" fill="#4E6575"/>
</svg>
